# xmcd CD database file
#
# Track frame offsets:
#	150
#	14074
#	30433
#	46050
#	66136
#	82749
#	103653
#	120935
#	134044
#	150688
#	165225
#	184952
#	205647
#	227276
#
# Disc length: 3285 seconds
#
# Revision: 0
# Processed by: cddbd v1.5.2PL0 Copyright (c) Steve Scherf et al.
# Submitted via: CDex 1.51
#
DISCID=a30cd30e
DTITLE=Feist - The Reminder
DYEAR=2007
DGENRE=Jazz
TTITLE0=1234
TTITLE1=Brandy Alexander
TTITLE2=Honey Honey
TTITLE3=How My Heart Behaves
TTITLE4=I Feel It All
TTITLE5=Intuition
TTITLE6=My Moon My Man
TTITLE7=Past In Present
TTITLE8=Sealion
TTITLE9=So Sorry
TTITLE10=The Limit To Your Love
TTITLE11=The Park
TTITLE12=The Water
TTITLE13=The Water (Red Demos)
EXTD=YEAR: 2007
EXTT0=
EXTT1=
EXTT2=
EXTT3=
EXTT4=
EXTT5=
EXTT6=
EXTT7=
EXTT8=
EXTT9=
EXTT10=
EXTT11=
EXTT12=
EXTT13=
PLAYORDER=
